<?xml version="1.0" standalone="no"?>
<!DOCTYPE svg PUBLIC "-//W3C//DTD SVG 20010904//EN"
 "http://www.w3.org/TR/2001/REC-SVG-20010904/DTD/svg10.dtd">
<svg version="1.0" xmlns="http://www.w3.org/2000/svg"
 width="756.000000pt" height="756.000000pt" viewBox="0 0 756.000000 756.000000"
 preserveAspectRatio="xMidYMid meet">
<metadata>
Created by potrace 1.14, written by Peter Selinger 2001-2017
</metadata>
<g transform="translate(0.000000,756.000000) scale(0.100000,-0.100000)"
fill="#000000" stroke="none">
<path d="M2457 5611 c-57 -12 -133 -90 -146 -150 -12 -58 -14 -3297 -2 -3360
11 -57 96 -145 150 -157 20 -4 603 -9 1296 -11 1330 -5 1409 -2 1444 39 8 10
20 18 26 18 17 0 59 50 78 93 16 35 17 154 17 1693 0 1463 -2 1659 -15 1691
-15 34 -38 61 -107 122 l-28 24 -1337 3 c-736 1 -1355 -1 -1376 -5z m489 -164
c3 -3 7 -187 8 -409 1 -366 3 -405 19 -428 9 -13 17 -35 17 -47 0 -39 51 -116
95 -145 24 -16 47 -28 52 -28 6 0 18 -9 27 -19 26 -29 84 -32 606 -37 533 -6
642 1 700 41 59 41 124 109 153 157 l27 47 0 438 0 438 223 -2 c122 -2 229 -3
237 -3 42 -1 40 61 40 -1670 0 -1197 -3 -1657 -11 -1667 -10 -11 -240 -13
-1328 -13 -1289 0 -1316 0 -1328 19 -9 15 -13 402 -15 1660 -2 1508 -1 1641
14 1658 15 16 36 18 237 17 122 0 224 -4 227 -7z m1540 -10 c12 -11 5 -761 -6
-814 -12 -53 -52 -103 -84 -103 -12 -1 -32 -7 -46 -15 -21 -12 -112 -14 -540
-15 l-515 0 -58 24 c-39 16 -67 35 -83 57 l-23 34 -4 411 c-1 227 -1 416 0
420 3 10 1350 11 1359 1z"/>
<path d="M3717 3945 c-36 -36 -71 -65 -78 -65 -19 0 -122 -100 -163 -159 -21
-31 -56 -74 -76 -97 -21 -23 -41 -52 -45 -65 -4 -13 -19 -37 -32 -53 -14 -16
-38 -58 -55 -94 -28 -59 -40 -101 -69 -242 -14 -70 -4 -228 17 -251 7 -8 14
-26 14 -40 0 -13 12 -46 25 -74 14 -27 25 -55 25 -62 0 -6 -54 -64 -120 -129
-67 -65 -123 -128 -126 -141 -10 -36 3 -67 37 -92 30 -23 33 -23 65 -7 19 8
80 63 135 121 81 83 107 105 129 105 15 0 33 -7 41 -16 12 -15 49 -36 109 -65
14 -6 42 -21 64 -32 34 -17 58 -20 200 -20 155 0 163 1 211 26 27 15 54 27 59
27 5 0 27 15 50 34 115 96 236 231 236 264 0 10 7 30 15 45 39 74 40 367 2
442 -9 17 -30 60 -47 97 -17 37 -35 70 -40 73 -31 19 -7 47 232 277 37 35 39
41 36 88 -2 43 -7 54 -29 67 -46 28 -75 11 -207 -122 -68 -68 -129 -125 -136
-128 -7 -3 -35 26 -66 67 -29 39 -105 119 -168 179 -144 135 -150 136 -245 42z
m208 -232 c58 -59 105 -111 105 -115 0 -4 9 -15 19 -25 11 -10 21 -24 23 -30
2 -7 -145 -161 -326 -342 -282 -284 -331 -329 -347 -320 -28 15 -34 50 -33
206 0 109 4 147 16 165 8 13 19 39 23 58 4 19 16 46 26 59 11 13 19 31 19 41
0 9 12 27 26 41 15 13 35 42 45 64 20 45 263 305 285 305 8 0 61 -48 119 -107z
m280 -383 c65 -180 65 -362 0 -488 -21 -41 -143 -162 -163 -162 -8 0 -23 -6
-31 -14 -16 -13 -59 -27 -152 -49 -38 -8 -60 -7 -135 12 -109 28 -191 66 -200
93 -5 17 50 77 320 347 206 205 329 322 335 316 5 -6 17 -30 26 -55z"/>
<path d="M3771 5243 c-14 -3 -34 -11 -45 -18 -12 -7 -32 -15 -46 -19 -36 -9
-78 -50 -86 -83 -4 -15 -13 -35 -21 -45 -24 -28 -21 -138 7 -195 29 -61 107
-123 169 -135 57 -11 146 0 162 19 7 8 27 20 46 28 19 8 38 26 45 42 7 15 20
39 30 52 14 18 18 42 18 107 l0 82 -47 61 c-28 35 -59 64 -73 67 -14 4 -34 12
-46 19 -25 16 -80 25 -113 18z m59 -169 c26 -6 36 -15 52 -50 17 -40 17 -46 4
-72 -21 -41 -65 -57 -110 -42 -64 21 -77 91 -27 141 32 32 33 32 81 23z"/>
</g>
</svg>
